<?xml version="1.0" encoding="utf-8"?>
<!-- Generator: Adobe Illustrator 22.0.1, SVG Export Plug-In . SVG Version: 6.00 Build 0)  -->
<svg version="1.1" id="Layer_1" xmlns="http://www.w3.org/2000/svg" xmlns:xlink="http://www.w3.org/1999/xlink" x="0px" y="0px"
	 viewBox="0 0 417.4 151.1" style="enable-background:new 0 0 417.4 151.1;" xml:space="preserve">
<path d="M28.3,68.1V30.2h7.4v37.9H28.3z"/>
<path d="M46.7,44.2h0.1c1.8-2.4,5.2-3.8,8.3-3.8c3.3,0,6.2,1.4,7.8,3.8c2.2-2.2,5.6-3.8,8.8-3.8c6-0.1,9.1,3.7,9.2,9.9v17.8h-7V51.6
	c0-3.1-1.1-6.4-4.5-6.4c-3.4,0-5.5,2.1-5.5,6.8v16.2h-7V51.6c0-3.8-1.6-6.4-4.6-6.4c-3.3,0-5.4,2.3-5.4,6.9v16h-7V41h7V44.2z"/>
<path d="M98.5,44.7c4,0,6,4.7,6,9.3c0,4.8-1.6,10.4-6.3,10.4c-3.8,0-6.5-3.8-6.5-9.5C91.7,48.7,94,44.7,98.5,44.7z M91.7,41h-7v40.7
	h7V64.8c2,2.4,4.7,4,7.9,4c7.5,0,12.3-7.6,12.3-14.8c0-6-3.4-13.6-11.7-13.6c-3.2,0-6.6,1.6-8.4,4.4h-0.1V41z"/>
<path d="M122,51.3c-0.1-3.6,1.7-6.9,5.8-6.9c3.5,0,4.9,2.8,4.6,6.9H122z M139,55.2c0.5-8.1-2.9-14.8-11.1-14.8
	c-7.5,0-13.5,5.3-13.5,13.7c0,8.9,6,14.7,13.9,14.7c3,0,6.8-0.9,10.3-3l-2-3.8c-1.7,1.2-4.5,2.2-7.1,2.2c-4.4,0-7.9-3.8-7.7-8.9H139
	z"/>
<path d="M149.3,45.8h0.1l1.4-2.1c0.8-1.1,2.4-3.3,4.5-3.3c1.6,0,3.3,0.9,4.8,2.4l-2.6,5c-1.2-0.6-1.9-0.9-3.3-0.9
	c-2.4,0-4.8,2-4.8,7.9v13.4h-7V41h7V45.8z"/>
<path d="M169.4,41v27.1h-7V41H169.4z M161.7,32.9c0-2.1,1.7-4.2,4.1-4.2c2.4,0,4.3,2.1,4.3,4.2c0,2.3-1.6,4.5-4.2,4.5
	C163.4,37.5,161.7,35.2,161.7,32.9z"/>
<path d="M188.4,52.4c0.5,8-3.1,11.5-5.9,11.5c-1.7,0-3.2-1.6-3.2-4c0-3.1,1.7-5.1,5.2-6.2L188.4,52.4z M188.3,64.2
	c0,1.5,0.2,3,0.7,4h7.4c-0.8-1.9-1.1-4.4-1.1-6.6V50.5c0-8.5-6-10.1-10.8-10.1c-3.6,0-6.9,0.9-10.1,3.7l2.3,3.4c1.8-1.6,4-2.8,7-2.8
	c2.3,0,4.4,1.6,4.8,4.1l-6.2,1.9c-6.1,1.8-9.8,4.7-9.8,9.9c0,5,3.4,8.2,7.5,8.2c2.4,0,4.8-1.7,6.8-3.3L188.3,64.2z"/>
<path d="M199.7,68.1V28.3h7v39.8H199.7z"/>
<path d="M253.1,37.1c-1.8-1-4.8-2.1-7.7-2.1c-7.6,0-13.1,5.5-13.1,14.1c0,9,6.1,14.3,13.3,14.3c2.9,0,5.5-0.8,7.4-1.9l2.1,4.7
	c-2.3,1.4-6.2,2.6-9.8,2.6c-12.8,0-20.9-8.7-20.9-19.8c0-10.4,8-19.4,21-19.4c3.9,0,7.4,1.4,10,2.9L253.1,37.1z"/>
<path d="M269,64.8c-5,0-6.4-5.7-6.4-10.5c0-4.5,1.6-9.9,6.4-9.9c4.9,0,6.4,5.4,6.4,9.9C275.5,59,274.2,64.8,269,64.8z M269,68.8
	c8.3,0,13.9-6.1,13.9-14.5c0-8.8-6.7-13.9-13.9-13.9c-7.1,0-13.8,5.1-13.8,13.9C255.2,62.7,260.8,68.8,269,68.8z"/>
<path d="M285.9,68.1V28.3h7v39.8H285.9z"/>
<path d="M297.4,68.1V28.3h7v39.8H297.4z"/>
<path d="M314.9,51.3c-0.1-3.6,1.7-6.9,5.7-6.9c3.5,0,4.9,2.8,4.6,6.9H314.9z M331.9,55.2c0.5-8.1-2.9-14.8-11.1-14.8
	c-7.5,0-13.5,5.3-13.5,13.7c0,8.9,6,14.7,13.9,14.7c3,0,6.8-0.9,10.3-3l-2-3.8c-1.7,1.2-4.5,2.2-7.1,2.2c-4.4,0-7.9-3.8-7.7-8.9
	H331.9z"/>
<path d="M372.2,51.3c-0.1-3.6,1.7-6.9,5.8-6.9c3.5,0,4.9,2.8,4.6,6.9H372.2z M389.2,55.2c0.5-8.1-2.9-14.8-11.1-14.8
	c-7.5,0-13.5,5.3-13.5,13.7c0,8.9,6,14.7,13.9,14.7c3,0,6.8-0.9,10.3-3l-2-3.8c-1.7,1.2-4.5,2.2-7.1,2.2c-4.4,0-7.9-3.8-7.7-8.9
	H389.2z"/>
<path d="M348.3,44.7c4.2,0,6.4,4.4,6.4,9.1c0,5.4-2,10.6-6.7,10.6c-4.1,0-6.1-5.1-6.1-10.4C341.9,48.9,343.8,44.7,348.3,44.7z
	 M361.7,41h-7v3.3h-0.1c-1.5-2.4-4.6-4-7.9-4c-7.2,0-12.2,6.8-12.2,13.9c0,8.7,4.6,14.5,11.6,14.5c4,0,6.8-2.3,8.5-4.6h0.1v3.6
	c0,6.3-3.6,9.2-8.2,9.2c-3.6,0-6.6-0.7-9.2-2.3l-1.4,4.4c3.1,1.6,7.1,2.6,11.1,2.6c7.9,0,14.7-4,14.7-16V41z"/>
<path d="M28.3,84.4h7.5v32.8h15.8v5.1H28.3V84.4z"/>
<path d="M92.8,98.4c2.5-2.6,6-3.8,9.5-3.8c6.5,0,9.6,3.5,9.6,10.3v17.5h-7.1v-16.6c0-3.8-1.7-6.3-5.6-6.3c-3.6,0-6.4,2.3-6.4,6.8
	v16.2h-7.1V95.3h7V98.4z"/>
<path d="M130.1,98.9c4.4,0,6.7,4.4,6.7,9.1c0,5.4-2.1,10.6-7.1,10.6c-4.3,0-6.4-5.1-6.4-10.4C123.4,103.1,125.3,98.9,130.1,98.9z
	 M136.8,122.3h7.1V82.5h-7.1v15.9h-0.1c-1.7-2.4-4.9-3.8-8.5-3.8c-7.4,0-12.7,6.8-12.7,13.9c0,8.7,4.8,14.5,12.1,14.5
	c4.3,0,7.2-2.3,9-4.6h0.1V122.3z"/>
<path d="M162.2,119c-5.3,0-6.7-5.7-6.7-10.5c0-4.5,1.7-9.9,6.7-9.9c5.2,0,6.8,5.4,6.8,9.9C169,113.2,167.6,119,162.2,119z
	 M162.2,123c8.7,0,14.6-6.1,14.6-14.5c0-8.8-7.1-13.9-14.6-13.9c-7.4,0-14.5,5.1-14.5,13.9C147.7,116.9,153.6,123,162.2,123z"/>
<path d="M187.6,98.4c2.5-2.6,6-3.8,9.5-3.8c6.5,0,9.6,3.5,9.6,10.3v17.5h-7.1v-16.6c0-3.8-1.7-6.3-5.6-6.3c-3.6,0-6.4,2.3-6.4,6.8
	v16.2h-7.1V95.3h7V98.4z"/>
<path d="M67.2,119c-5.3,0-6.7-5.7-6.7-10.5c0-4.5,1.7-9.9,6.7-9.9c5.2,0,6.8,5.4,6.8,9.9C74,113.2,72.6,119,67.2,119z M67.2,123
	c8.7,0,14.6-6.1,14.6-14.5c0-8.8-7.1-13.9-14.6-13.9c-7.4,0-14.5,5.1-14.5,13.9C52.7,116.9,58.5,123,67.2,123z"/>
</svg>
